<svg xmlns="http://www.w3.org/2000/svg" id="_レイヤー_2" data-name="レイヤー 2" viewBox="0 0 66.9 62.25"><defs><style>.cls-2{fill:#ff9739}.cls-4{fill:#fff}.cls-5{fill:#8bdb4d}.cls-6{fill:#cdb4fc}.cls-7{fill:#9fbdff}.cls-8{fill:#07bfd8}.cls-9{fill:#120c93}</style></defs><g id="_ロゴ" data-name="ロゴ"><path d="M35.77 0C18.58 0 4.65 13.94 4.65 31.13c0 1.42.1 2.81.29 4.17C6.98 50.52 20 62.26 35.78 62.26s28.8-11.74 30.84-26.96c.18-1.37.29-2.76.29-4.17C66.9 13.94 52.97 0 35.77 0" class="cls-7"/><path d="M66.37 25.4c-.01-.08-.03-.15-.04-.23.01.07.03.15.04.22Zm-61.2.05v.03-.02Zm1.3-4.83s0 .02-.01.04h.06c-.02-.01-.03-.02-.05-.03Z" style="fill:none"/><path d="M53.5 42.02a13.02 13.02 0 0 1-7.75 2.54c-1.97 0-3.91-.43-5.68-1.29-.56-.27-1.24-.04-1.51.53-.27.56-.04 1.24.53 1.51 2.08 1.01 4.33 1.52 6.67 1.52s4.53-.5 6.6-1.49c.87-.41 1.7-.91 2.48-1.49.5-.37.61-1.08.24-1.58s-1.08-.61-1.58-.24Z" class="cls-6"/><path d="M58.01 38.92c-.25-.2-.69-.35-1.13-.16-.17.07-.33.18-.46.34-.02.02-.03.04-.05.06a1.15 1.15 0 0 0 .19 1.64c.2.15.44.22.67.22.34 0 .69-.15.91-.44.03-.04.06-.09.09-.13.05-.08.1-.17.13-.26.2-.54-.07-1.03-.35-1.26Z" class="cls-2"/><path d="M55.62 19.66c-.48-.4-1.19-.34-1.59.14s-.34 1.19.14 1.59c2.99 2.5 4.71 6.17 4.71 10.06 0 .62.51 1.13 1.13 1.13s1.13-.51 1.13-1.13c0-4.56-2.01-8.85-5.52-11.79" class="cls-5"/><path d="M45.76 18.34c1.2 0 2.38.16 3.52.48a1.14 1.14 0 0 0 1.39-.79c.17-.6-.18-1.22-.78-1.39-1.34-.37-2.73-.56-4.13-.56-.62 0-1.13.51-1.13 1.13s.51 1.13 1.13 1.13" class="cls-8"/><path d="M25.79 18.34c1.68 0 3.31.31 4.85.92 1.62.65 3.08 1.6 4.34 2.85.22.22.51.32.79.32s.57-.11.79-.32c1.2-1.18 2.57-2.1 4.09-2.74.57-.24.84-.91.6-1.48s-.91-.84-1.48-.6a15.3 15.3 0 0 0-4 2.48 15.28 15.28 0 0 0-9.99-3.7c-.62 0-1.13.51-1.13 1.13s.51 1.13 1.13 1.13Z" class="cls-6"/><path d="M20.48 18.19c-.28-.56-.96-.79-1.52-.51a15.4 15.4 0 0 0-5.1 4.07c-.34.41-.65.84-.94 1.29-.68 1.04-1.24 2.17-1.65 3.35-.55 1.6-.85 3.3-.85 5.06 0 .62.51 1.13 1.13 1.13s1.13-.51 1.13-1.13c0-5.01 2.79-9.51 7.29-11.75.56-.28.79-.96.51-1.52Z" class="cls-2"/><path d="M20.9 43.62a13.15 13.15 0 0 1-6.79-6.21 1.12 1.12 0 0 0-1.52-.49c-.56.28-.78.97-.49 1.52 1.69 3.31 4.52 5.89 7.96 7.28a1.135 1.135 0 0 0 1.47-.63c.23-.58-.05-1.24-.63-1.47" class="cls-5"/><path d="M31.83 43.09c-1.84.96-3.93 1.47-6.04 1.47-.62 0-1.13.51-1.13 1.13s.51 1.13 1.13 1.13c2.47 0 4.92-.6 7.08-1.72a1.128 1.128 0 0 0-1.04-2Z" class="cls-8"/><path d="M45.76 21.28c-2.72 0-5.27 1.06-7.2 2.99-.74.74-1.74 1.16-2.79 1.16s-2.05-.42-2.79-1.16a10.1 10.1 0 0 0-7.2-2.99c-5.61 0-10.17 4.56-10.17 10.17s4.56 10.17 10.17 10.17c2.71 0 5.27-1.06 7.2-2.99.13-.13.27-.24.41-.35-.28-1.08-.16-2.22.36-3.22.85-1.65 3.2-1.65 4.05 0 .51 1 .63 2.15.36 3.22.14.11.28.22.41.35 1.93 1.93 4.48 2.99 7.2 2.99 5.61 0 10.17-4.56 10.17-10.17s-4.56-10.17-10.17-10.17ZM26.23 36.22c-2.63 0-4.77-2.13-4.77-4.77s2.13-4.77 4.77-4.77S31 28.81 31 31.45s-2.13 4.77-4.77 4.77m19.09 0c-2.63 0-4.77-2.13-4.77-4.77s2.13-4.77 4.77-4.77 4.77 2.13 4.77 4.77-2.13 4.77-4.77 4.77" class="cls-7"/><path d="M37.8 35.06c-.85-1.65-3.2-1.65-4.05 0-.51 1-.63 2.15-.36 3.22.05.2.11.4.19.59l1.33 3.26c.31.77 1.41.77 1.72 0l1.33-3.26c.08-.19.14-.39.19-.59.28-1.08.16-2.22-.36-3.22Z" class="cls-9"/><path d="M26.23 26.68c-2.63 0-4.77 2.13-4.77 4.77s2.13 4.77 4.77 4.77S31 34.09 31 31.45s-2.13-4.77-4.77-4.77m0 7.78c-1.66 0-3.01-1.35-3.01-3.01s1.35-3.01 3.01-3.01 3.01 1.35 3.01 3.01-1.35 3.01-3.01 3.01" class="cls-4"/><circle cx="26.23" cy="31.45" r="3.01" class="cls-9"/><path d="M45.32 26.68c-2.63 0-4.77 2.13-4.77 4.77s2.13 4.77 4.77 4.77 4.77-2.13 4.77-4.77-2.13-4.77-4.77-4.77m0 7.78c-1.66 0-3.01-1.35-3.01-3.01s1.35-3.01 3.01-3.01 3.01 1.35 3.01 3.01-1.35 3.01-3.01 3.01" class="cls-4"/><circle cx="45.32" cy="31.45" r="3.01" class="cls-9"/><path d="M66.89 30.19v-.26c0-.23-.02-.47-.03-.7 0-.09-.01-.18-.02-.27l-.06-.78c0-.05 0-.09-.01-.14-.03-.32-.07-.64-.11-.96v-.01c-.04-.31-.09-.61-.13-.92 0-.05-.02-.1-.02-.15-.03-.2-.07-.4-.11-.6-.01-.07-.03-.15-.04-.22 0-.03-.01-.07-.02-.1-.13-.64-.27-1.27-.43-1.89-5.09-7.69-13.15-13.3-22.58-15.28-2.41-.59-4.93-.9-7.52-.9s-5.11.31-7.52.9c-4.62.97-8.92 2.81-12.69 5.34-.75.45-1.48.77-2.13.98-1.22.3-2.67.57-4.25.71-1.95.17-4.09.13-6.25-.33-.93-.2-1.63.82-1.09 1.6.93 1.33 2.42 3 4.62 4.41.02.01.03.02.05.03h-.06c-1.4.16-3.19.15-5.46-.17-.84-.12-1.32.97-.74 1.59 1.05 1.13 2.73 2.48 4.91 3.37v.02l-.09.53c0 .05-.02.1-.02.14-.05.31-.09.61-.13.92-.04.33-.08.65-.11.97 0 .05 0 .09-.01.14-.02.26-.05.52-.06.78 0 .09-.01.18-.02.27l-.03.69v.26c0 .31-.02.62-.02.94 0 .38 0 .75.02 1.12.04.98.12 1.95.25 2.9 0 .05.01.1.02.15a31 31 0 0 0 1.27 5.53c.22.67.46 1.32.72 1.97.32.79.67 1.56 1.05 2.32l.21.42a31.2 31.2 0 0 0 5.52 7.54c.31.31.63.62.95.92.03.02.05.05.08.07.3.27.6.54.91.8.23.2.47.4.71.59.28.22.56.44.84.65.29.21.58.42.87.62.25.18.51.35.77.51.45.29.91.58 1.38.85 4.58 2.65 9.89 4.16 15.56 4.16 1.62 0 3.22-.13 4.77-.37 9.55-1.47 17.67-7.28 22.27-15.36.11-.2.23-.4.34-.6q.33-.615.63-1.23c.4-.83.77-1.68 1.1-2.55.16-.44.32-.88.47-1.32a31 31 0 0 0 1.27-5.53c0-.06.01-.13.02-.19q.18-1.41.24-2.85c.01-.37.02-.75.02-1.12 0-.31 0-.63-.02-.94ZM50.67 18.03a1.13 1.13 0 0 1-1.39.79c-1.14-.32-2.33-.48-3.52-.48-.62 0-1.13-.51-1.13-1.13s.51-1.13 1.13-1.13c1.4 0 2.79.19 4.13.56.6.17.95.79.78 1.39m-19.19-.87c1.57.63 3.01 1.5 4.3 2.61 1.21-1.03 2.55-1.87 4-2.48.58-.24 1.24.03 1.48.6s-.03 1.24-.6 1.48c-1.52.64-2.9 1.57-4.09 2.74-.22.22-.51.32-.79.32s-.57-.11-.79-.32c-1.26-1.24-2.72-2.2-4.34-2.85-1.54-.61-3.17-.92-4.85-.92-.62 0-1.13-.51-1.13-1.13s.51-1.13 1.13-1.13c1.97 0 3.88.37 5.69 1.09ZM10.42 31.45c0-1.76.3-3.47.85-5.06.41-1.19.96-2.31 1.65-3.35.29-.44.61-.87.94-1.29a15.4 15.4 0 0 1 5.1-4.07 1.134 1.134 0 0 1 1.01 2.03c-4.5 2.24-7.29 6.74-7.29 11.75 0 .62-.51 1.13-1.13 1.13s-1.13-.51-1.13-1.13Zm11.11 13.64a1.135 1.135 0 0 1-1.47.63 15.46 15.46 0 0 1-7.96-7.28c-.28-.56-.06-1.24.49-1.52.56-.28 1.24-.06 1.52.49a13.2 13.2 0 0 0 6.79 6.21c.58.23.86.89.63 1.47m11.34.01a15.36 15.36 0 0 1-7.08 1.72c-.62 0-1.13-.51-1.13-1.13s.51-1.13 1.13-1.13c2.11 0 4.19-.51 6.04-1.47.55-.29 1.24-.07 1.52.48.29.55.07 1.24-.48 1.52Zm21.97-1.25c-.78.57-1.61 1.07-2.48 1.49-2.07.99-4.29 1.49-6.6 1.49s-4.58-.51-6.67-1.52c-.56-.27-.8-.95-.53-1.51s.95-.8 1.51-.53c1.77.86 3.69 1.29 5.68 1.29s3.86-.43 5.63-1.27c.74-.35 1.45-.78 2.12-1.27.5-.37 1.21-.26 1.58.24s.26 1.21-.24 1.58Zm-9.08-2.23c-2.72 0-5.27-1.06-7.2-2.99-.13-.13-.27-.24-.41-.35-.05.2-.11.4-.19.59l-1.33 3.26c-.31.77-1.41.77-1.72 0l-1.33-3.26c-.08-.19-.14-.39-.19-.59-.14.11-.28.22-.41.35a10.1 10.1 0 0 1-7.2 2.99c-5.61 0-10.17-4.56-10.17-10.17s4.56-10.17 10.17-10.17c2.71 0 5.27 1.06 7.2 2.99.74.74 1.74 1.16 2.79 1.16s2.05-.42 2.79-1.16c1.93-1.93 4.48-2.99 7.2-2.99 5.61 0 10.17 4.56 10.17 10.17s-4.56 10.17-10.17 10.17m12.6-1.44c-.03.09-.07.17-.13.26-.03.04-.06.09-.09.13-.23.29-.57.44-.91.44-.24 0-.47-.07-.67-.22-.21-.16-.49-.52-.45-.99.01-.23.1-.46.26-.65.02-.02.03-.04.05-.06.13-.15.29-.27.46-.34.44-.18.88-.04 1.13.16.28.23.55.71.35 1.26Zm1.64-7.6c-.62 0-1.13-.51-1.13-1.13 0-3.89-1.72-7.55-4.71-10.06-.48-.4-.54-1.11-.14-1.59s1.11-.54 1.59-.14c3.51 2.94 5.52 7.23 5.52 11.79 0 .62-.51 1.13-1.13 1.13" style="fill:#365bad"/></g></svg>